<svg width="36" height="36" viewBox="0 0 36 36" fill="none" xmlns="http://www.w3.org/2000/svg">
<path fill-rule="evenodd" clip-rule="evenodd" d="M14.9468 18.6958L12.8835 27.3899C12.7928 27.7706 13.0222 27.9946 13.1264 28.0734C13.2307 28.1523 13.5072 28.3164 13.8544 28.1288L32.0022 18.2726C32.3222 18.0976 32.3576 17.7957 32.3576 17.6761C32.3594 17.5582 32.3213 17.2645 32.0131 17.0922L13.8977 7.1832C13.5542 6.99554 13.2731 7.16054 13.1689 7.23941C13.0628 7.32009 12.828 7.54764 12.915 7.93022L14.9531 16.773L24.6172 16.7223C25.1475 16.7196 25.5809 17.1475 25.5845 17.6787C25.5881 18.21 25.1584 18.6433 24.6281 18.6461L14.9468 18.6958ZM11.6904 29.368C11.0594 28.737 10.802 27.8377 11.0123 26.9456L13.2007 17.7276L11.042 8.36173C10.8099 7.3518 11.178 6.33463 12.0066 5.70728C12.8343 5.07903 13.9122 5.00017 14.8197 5.49607L32.935 15.4051C33.7682 15.8611 34.2804 16.7305 34.2822 17.6788C34.2795 18.6316 33.7582 19.5065 32.9187 19.9616L14.7719 29.8168C13.8599 30.3136 12.7819 30.2311 11.9588 29.6019C11.8627 29.5276 11.7738 29.4514 11.6904 29.368Z" fill="#706BAD"/>
</svg>
